<svg id="Capa_1" enable-background="new 0 0 512 512" height="512" viewBox="0 0 512 512" width="512" xmlns="http://www.w3.org/2000/svg"><g><path d="m255.999 0c-108.764 0-197.249 88.486-197.249 197.25 0 74.082 41.787 141.945 107.251 175.558v124.192c0 8.284 6.716 15 15 15h150c8.284 0 15-6.716 15-15v-124.192c65.464-33.613 107.25-101.476 107.25-175.558-.001-108.764-88.487-197.25-197.252-197.25zm-42.394 74.371c12.105-27.784 27.953-44.371 42.394-44.371 14.442 0 30.291 16.587 42.396 44.372 3.387 7.774 6.406 16.184 9.047 25.109-16.31 1.997-33.566 3.215-51.443 3.215-17.876 0-35.134-1.215-51.443-3.212 2.642-8.927 5.661-17.338 9.049-25.113zm-47.605 263.875c-12.584-8.052-23.899-17.699-33.761-28.58 11.147-3.139 22.42-5.903 33.761-8.251zm0-67.417c-17.832 3.472-35.544 7.883-52.904 13.185-13.075-21.535-21.317-46.026-23.643-71.764h72.407c.539 15.689 1.926 31.104 4.14 46.014zm-4.145-88.579h-72.425c2.331-26.092 10.667-50.482 23.631-71.762 15.616 4.769 34.187 9.639 54.922 13.6-3.361 18.405-5.438 37.985-6.128 58.162zm12.839-87.418c-15.536-2.932-29.81-6.415-42.447-9.976 17.731-19.505 40.002-34.806 65.121-44.24-4.017 6.529-7.788 13.788-11.266 21.772-4.354 9.993-8.166 20.872-11.408 32.444zm141.306 387.168h-120v-210h120zm1.88-240h-123.76c-1.117-9.737-1.872-19.674-2.244-29.75h128.248c-.372 10.076-1.127 20.013-2.244 29.75zm-126.006-59.75c.678-18.626 2.616-36.608 5.718-53.415 18.414 2.386 38.021 3.861 58.408 3.861s39.995-1.475 58.409-3.861c3.103 16.808 5.04 34.79 5.718 53.415zm145.432-87.417c-3.242-11.573-7.054-22.452-11.407-32.444-3.479-7.984-7.249-15.244-11.266-21.772 25.119 9.434 47.391 24.736 65.122 44.241-12.638 3.561-26.915 7.044-42.449 9.975zm6.711 29.255c20.735-3.961 39.306-8.831 54.922-13.6 12.965 21.279 21.301 45.669 23.632 71.762h-72.426c-.69-20.177-2.767-39.757-6.128-58.162zm1.983 214.158v-36.831c11.34 2.348 22.613 5.112 33.76 8.25-9.861 10.882-21.176 20.529-33.76 28.581zm52.904-54.232c-17.36-5.302-35.072-9.713-52.904-13.185v-12.565c2.214-14.91 3.602-30.325 4.14-46.014h72.407c-2.326 25.738-10.568 50.229-23.643 71.764z"/><circle cx="256" cy="437" r="15"/></g></svg>